<svg width="109" height="27" viewBox="0 0 109 27" fill="none" xmlns="http://www.w3.org/2000/svg">
<path d="M17.4736 2.26056C19.482 3.3926 21.0577 4.96284 22.2026 6.9713C23.3468 8.97975 23.9189 11.2499 23.9189 13.7818C23.9189 16.3143 23.3468 18.5838 22.2026 20.5923C21.0577 22.6007 19.482 24.171 17.4736 25.303C15.4651 26.4351 13.1949 27.0011 10.6631 27.0011C8.39899 27.0011 6.3595 26.6116 4.54641 25.8325C2.73272 25.0535 1.21725 23.9214 0 22.4364L3.76129 18.9307C5.56281 20.952 7.76542 21.9617 10.3709 21.9617C12.2455 21.9617 13.834 21.4139 15.1364 20.3184C16.4383 19.2229 17.2849 17.75 17.6744 15.8998H7.30347V11.3716H17.6014C17.1869 9.61881 16.3354 8.21897 15.0452 7.17214C13.7543 6.12592 12.1968 5.6019 10.3709 5.6019C7.76542 5.6019 5.56281 6.61221 3.76129 8.63284L0 5.12717C1.21725 3.64274 2.73272 2.5107 4.54641 1.73106C6.3595 0.952019 8.39899 0.5625 10.6631 0.5625C13.1949 0.5625 15.4651 1.12852 17.4736 2.26056Z" fill="#203686"/>
<path d="M38.4536 16.2643H34.3637V26.5622H28.4844V1H34.3637V11.3344H38.5997L45.3189 1H51.5633L43.2009 13.3429L51.819 26.5622H45.0998L38.4536 16.2643Z" fill="#203686"/>
<path d="M103.361 2.13204C105.028 2.88673 106.313 3.95791 107.213 5.34557C108.113 6.73323 108.564 8.37651 108.564 10.2754C108.564 12.1506 108.113 13.7872 107.213 15.187C106.313 16.5874 105.028 17.658 103.361 18.4005C101.693 19.1437 99.7273 19.5143 97.4632 19.5143H92.3142V26.5622H86.3984V1H97.4632C99.7273 1 101.693 1.37735 103.361 2.13204ZM101.188 13.5437C102.113 12.7769 102.576 11.6874 102.576 10.2754C102.576 8.83906 102.113 7.73746 101.188 6.97059C100.262 6.20373 98.9111 5.82029 97.1345 5.82029H92.3142V14.694H97.1345C98.9111 14.694 100.262 14.3106 101.188 13.5437Z" fill="#203686"/>
<path d="M62.4766 25.0522C62.4766 25.0522 67.9992 28.2511 74.6874 25.02C81.3755 21.7888 82.202 16.2284 82.482 13.8043C82.7614 11.3795 81.9239 7.69734 80.2581 6.77223C78.5929 5.84652 78.0646 7.3979 78.1145 7.99313C78.1644 8.58836 79.451 10.7478 79.9069 12.8603C80.3628 14.9722 80.0785 18.669 77.4962 21.6719C74.9138 24.6743 69.3023 27.4246 62.6245 24.7357L62.4766 25.0522Z" fill="#FFAB01"/>
<path d="M66.4258 24.883C66.4258 24.883 70.5772 25.8209 75.2788 22.3512C79.981 18.882 79.5708 12.2109 78.0784 11.8634C76.7766 11.5603 76.4528 12.6759 76.5922 13.5018C76.7309 14.3277 77.1771 16.1803 76.8082 17.6739C76.4382 19.1675 73.7493 24.9262 66.4258 24.883Z" fill="#FFAB01"/>
<path d="M69.1875 23.7405C69.1875 23.7405 71.317 23.5323 73.7911 21.183C76.2651 18.8338 75.2998 15.9872 74.1185 15.8485C72.9378 15.7103 72.978 16.7474 73.082 17.3664C73.1861 17.9853 73.8197 19.1569 72.7929 20.9341C71.7662 22.7113 70.0268 23.3461 69.1875 23.7405Z" fill="#FFAB01"/>
<path d="M57.0814 26.6835C57.0814 26.6835 57.6157 24.4219 58.6753 22.9003C58.6753 22.9003 60.6759 24.3732 63.8523 25.6805C63.8523 25.6805 63.5309 21.8352 58.1075 19.0179C58.1075 19.0179 56.5519 13.8915 60.5085 12.4837C62.4397 11.7966 65.3081 12.2263 68.4407 11.7211C67.3245 11.0115 65.6593 9.59643 65.3459 7.33358C63.7342 7.28245 57.4167 7.5119 56.5646 14.1763C56.5646 14.1763 56.183 6.75356 65.2947 6.64948C65.282 5.69577 65.5047 4.60816 66.0811 3.37996C66.0811 3.37996 63.9588 8.72306 69.5046 11.5118C72.4881 10.8173 75.6359 9.0998 78.396 4.66842C78.396 4.66842 73.163 -1.53893 65.4518 0.3618C57.7417 2.26435 51.7376 10.429 56.6188 19.7008C56.6188 19.7008 54.8666 23.2527 57.0814 26.6835ZM70.3822 5.29712C69.9032 4.87109 69.8698 4.14683 70.3092 3.68062C70.7486 3.21442 71.493 3.18277 71.9726 3.60941C72.4528 4.03606 72.485 4.76032 72.0456 5.22591C71.6074 5.69212 70.8624 5.72377 70.3822 5.29712Z" fill="#203686"/>
<path d="M59.5581 2.82842C59.5581 2.82842 56.3676 4.91783 54.9051 9.45815C54.9051 9.45815 53.6903 5.36577 55.6635 2.375L59.5581 2.82842Z" fill="#203686"/>
<path d="M66.3255 12.4375L62.277 12.5471L61.1973 14.6888C61.1979 14.6888 63.5143 15.3199 66.3255 12.4375Z" fill="#203686"/>
</svg>
